<?xml version="1.0" encoding="iso-8859-1"?>
<!-- Generator: Adobe Illustrator 19.0.0, SVG Export Plug-In . SVG Version: 6.00 Build 0)  -->
<svg version="1.1" id="Layer_1" xmlns="http://www.w3.org/2000/svg" xmlns:xlink="http://www.w3.org/1999/xlink" x="0px" y="0px"
	 viewBox="0 0 512 512" style="enable-background:new 0 0 512 512;" xml:space="preserve">
<path style="fill:#E1744E;" d="M116.575,110.738v33.4h78.971l8.284,66.275h-62.913v33.4h67.088l8.284,66.275h-49.277v33.4h286.799
	L512,110.737H116.575V110.738z M320.428,210.412v-66.275h57.824l-8.284,66.275H320.428z M365.793,243.812l-8.284,66.275h-37.08
	v-66.275H365.793z M411.912,144.137h57.31l-16.568,66.275h-49.026L411.912,144.137z M229.206,144.137h57.824v66.275H237.49
	L229.206,144.137z M241.665,243.812h45.365v66.275h-37.08L241.665,243.812z M391.169,310.088l8.284-66.275h44.85l-16.568,66.275
	H391.169z"/>
<polygon style="fill:#CACACD;" points="402.351,424.111 172.955,424.111 82.804,63.513 0,63.513 0,30.113 108.882,30.113 
	199.031,390.711 402.351,390.711 "/>
<path style="fill:#5B5B5F;" d="M178.315,481.887c-25.137,0-45.587-20.451-45.587-45.588c0-25.137,20.451-45.587,45.587-45.587
	s45.587,20.451,45.587,45.587C223.902,461.436,203.452,481.887,178.315,481.887z"/>
<path style="fill:#CACACD;" d="M178.315,451.079c-8.15,0-14.78-6.631-14.78-14.78c0-8.15,6.631-14.78,14.78-14.78
	c8.15,0,14.78,6.631,14.78,14.78C193.095,444.449,186.465,451.079,178.315,451.079z"/>
<path style="fill:#5B5B5F;" d="M400.533,481.887c-25.137,0-45.587-20.451-45.587-45.588c0-25.137,20.451-45.587,45.587-45.587
	c25.137,0,45.587,20.451,45.587,45.587C446.12,461.436,425.67,481.887,400.533,481.887z"/>
<path style="fill:#CACACD;" d="M400.533,451.079c-8.15,0-14.78-6.631-14.78-14.78c0-8.15,6.631-14.78,14.78-14.78
	c8.15,0,14.78,6.631,14.78,14.78C415.312,444.449,408.683,451.079,400.533,451.079z"/>
<path style="fill:#DD5323;" d="M512,110.738H303.711v232.75h150.101L512,110.738z M357.509,310.088h-37.08v-66.275h45.365
	L357.509,310.088z M369.968,210.412h-49.539v-66.275h57.824L369.968,210.412z M427.735,310.088h-36.566l8.284-66.275h44.85
	L427.735,310.088z M403.628,210.412l8.284-66.275h57.31l-16.568,66.275H403.628z"/>
<g>
</g>
<g>
</g>
<g>
</g>
<g>
</g>
<g>
</g>
<g>
</g>
<g>
</g>
<g>
</g>
<g>
</g>
<g>
</g>
<g>
</g>
<g>
</g>
<g>
</g>
<g>
</g>
<g>
</g>
</svg>
